<svg width="302" height="16" viewBox="0 0 302 16" fill="none" xmlns="http://www.w3.org/2000/svg">
<path d="M0 8H105" stroke="#A39797" stroke-width="0.6"/>
<path d="M147.174 13.13C146.533 13.13 145.935 13.013 145.38 12.779C144.825 12.5363 144.34 12.2027 143.924 11.778C143.508 11.3447 143.183 10.8463 142.949 10.283C142.724 9.71967 142.611 9.11733 142.611 8.476C142.611 7.826 142.724 7.22367 142.949 6.669C143.183 6.10567 143.504 5.61167 143.911 5.187C144.327 4.76233 144.808 4.433 145.354 4.199C145.909 3.965 146.507 3.848 147.148 3.848C147.789 3.848 148.383 3.965 148.929 4.199C149.484 4.433 149.969 4.76233 150.385 5.187C150.801 5.61167 151.126 6.10567 151.36 6.669C151.594 7.23233 151.711 7.839 151.711 8.489C151.711 9.13033 151.594 9.73267 151.36 10.296C151.126 10.8593 150.801 11.3533 150.385 11.778C149.978 12.2027 149.497 12.5363 148.942 12.779C148.396 13.013 147.807 13.13 147.174 13.13ZM147.148 11.96C147.798 11.96 148.366 11.8127 148.851 11.518C149.345 11.2147 149.735 10.803 150.021 10.283C150.307 9.75433 150.45 9.152 150.45 8.476C150.45 7.97333 150.368 7.514 150.203 7.098C150.038 6.67333 149.809 6.305 149.514 5.993C149.219 5.681 148.873 5.44267 148.474 5.278C148.075 5.10467 147.633 5.018 147.148 5.018C146.507 5.018 145.939 5.16533 145.445 5.46C144.96 5.75467 144.574 6.162 144.288 6.682C144.011 7.202 143.872 7.8 143.872 8.476C143.872 8.97867 143.95 9.44667 144.106 9.88C144.271 10.3047 144.496 10.673 144.782 10.985C145.077 11.2883 145.423 11.5267 145.822 11.7C146.229 11.8733 146.671 11.96 147.148 11.96ZM155.662 13.13C155.16 13.13 154.705 13.0173 154.297 12.792C153.899 12.558 153.587 12.2373 153.361 11.83C153.136 11.4227 153.023 10.9503 153.023 10.413V6.825H154.193V10.361C154.193 10.699 154.25 10.9937 154.362 11.245C154.484 11.4877 154.657 11.674 154.882 11.804C155.108 11.934 155.372 11.999 155.675 11.999C156.135 11.999 156.494 11.856 156.754 11.57C157.014 11.2753 157.144 10.8723 157.144 10.361V6.825H158.314V10.413C158.314 10.9503 158.202 11.4227 157.976 11.83C157.751 12.2373 157.439 12.558 157.04 12.792C156.65 13.0173 156.191 13.13 155.662 13.13Z" fill="#757171"/>
<path d="M197 8H302" stroke="#A39797" stroke-width="0.6"/>
</svg>
